Genesis - The Way We Walk Live 1992 (Laserdisc 60 FPS transfer)

IMPORTANT: I recommend NOT using VLC to play it. There is a well-known
issue regarding VLC and 60 FPS videos. It is very jerky on Windows
when using hardware acceleration due to a bug in VLC's timing code.
I highly recommend using "Media Player Classic: Home Cinema" instead.
If you must use VLC, be sure to disable hardware acceleration! This
bug does not effect Linux or Mac versions of VLC.

NOTE: You can download only the sample AVI file first
by unchecking the other files in your bittorrent client.
It is small, and you can sample the video/audio quality
of the entire download before getting the rest of it.

 Title: The Way We Walk (Live 1992)
Artist: Genesis
 Media: Laserdisc

Length: 2 hours, 14 minutes, 48 seconds.

Notes: This is a high-quality 60 FPS transfer from the rare
       laserdisc release. Extremely smooth, video and especially
       audio quality superior to the DVD release. It also includes
       the music video extras found on side 3 of the laserdisc set.


Video: MPEG4 Video (H264) 720x540 59.94fps 1599kbps [Video 0]
Audio: Dolby AC3 48000Hz stereo 448kbps [Audio 1]

Concert set list:
1. Titles
2. Land of Confusion
3. No Son Of Mine
4. Driving The Last Spike
5. Old Medley
6. Fading Lights
7. Jesus He Knows Me
8. Dreaming While You Sleep
9. Home By The Sea
10. Hold On My Heart
11. Domino
12. Drum Duel
13. I Can't Dance
14. Tonight, Tonight, Tonight
15. Invisible Touch
16. Turn It On Again

Music videos extras list:
1. No Son Of Mine
2. I Can't Dance
3. Hold On My Heart
4. Jesus He Knows Me

Encoding: Video is compressed using x264vfw codec. Motion
          search set to highest possible quality, using a
          two-pass bitrate control method. Audio has been
          compressed into AC3 448 kbps 2-channel stereo
          from PCM source.

General
Format                         : AVI
Format/Info                    : Audio Video Interleave
File size                      : 1.94 GiB
Duration                       : 2h 14mn
Overall bit rate               : 2 066 Kbps
Writing library                : VirtualDub build 32817/release

Video
ID                             : 0
Format                         : AVC
Format/Info                    : Advanced Video Codec
Format profile                 : High@L4.0
Format settings, CABAC         : Yes
Format settings, ReFrames      : 16 frames
Codec ID                       : H264
Duration                       : 2h 14mn
Bit rate                       : 1 600 Kbps
Width                          : 720 pixels
Height                         : 540 pixels
Display aspect ratio           : 4:3
Frame rate                     : 59.940 fps
Color space                    : YUV
Chroma subsampling             : 4:2:0
Bit depth                      : 8 bits
Scan type                      : Progressive
Bits/(Pixel*Frame)             : 0.069
Stream size                    : 1.51 GiB (77%)
Writing library                : x264 core 125 r2200bm 999b753
Encoding settings              : cabac=1 / ref=16 / deblock=1:0:0 / analyse=0x3:0x133 / me=umh / subme=10 / psy=1 / psy_rd=1.00:0.00 / mixed_ref=1 / me_range=24 

/ chroma_me=1 / trellis=2 / 8x8dct=1 / cqm=0 / deadzone=21,11 / fast_pskip=1 / chroma_qp_offset=-2 / threads=12 / lookahead_threads=2 / sliced_threads=0 / nr=0 

/ decimate=1 / interlaced=0 / bluray_compat=0 / constrained_intra=0 / bframes=8 / b_pyramid=2 / b_adapt=2 / b_bias=0 / direct=3 / weightb=1 / open_gop=0 / 

weightp=2 / keyint=250 / keyint_min=25 / scenecut=40 / intra_refresh=0 / rc_lookahead=60 / rc=2pass / mbtree=1 / bitrate=1600 / ratetol=1.0 / qcomp=0.60 / 

qpmin=0 / qpmax=69 / qpstep=4 / cplxblur=20.0 / qblur=0.5 / ip_ratio=1.40 / aq=1:1.00

Audio
ID                             : 1
Format                         : AC-3
Format/Info                    : Audio Coding 3
Mode extension                 : CM (complete main)
Format settings, Endianness    : Big
Codec ID                       : 2000
Duration                       : 2h 14mn
Bit rate mode                  : Constant
Bit rate                       : 448 Kbps
Channel(s)                     : 2 channels
Channel positions              : Front: L R
Sampling rate                  : 48.0 KHz
Bit depth                      : 16 bits
Compression mode               : Lossy
Stream size                    : 432 MiB (22%)
Alignment                      : Aligned on interleaves
Interleave, duration           : 32 ms (1.92 video frames)
Interleave, preload duration   : 512 ms
		